<svg width="20" height="20" viewBox="0 0 20 20" fill="none" xmlns="http://www.w3.org/2000/svg">
<path d="M8.98477 12.2246V11.8691C8.98477 11.5046 9.01895 11.1924 9.0873 10.9326C9.15566 10.6683 9.27415 10.4222 9.44277 10.1943C9.61595 9.96647 9.85521 9.72493 10.1605 9.46973C10.516 9.1735 10.7963 8.92285 11.0014 8.71777C11.211 8.50814 11.3614 8.2985 11.4525 8.08887C11.5437 7.87923 11.5893 7.6263 11.5893 7.33008C11.5893 6.85612 11.4366 6.49382 11.1312 6.24316C10.8259 5.98796 10.3952 5.86035 9.83926 5.86035C9.38809 5.86035 8.98704 5.91732 8.63613 6.03125C8.28522 6.14518 7.94798 6.2819 7.62441 6.44141L7.22793 5.52539C7.60163 5.32943 8.00723 5.16992 8.44473 5.04688C8.88223 4.92383 9.36986 4.8623 9.90762 4.8623C10.7872 4.8623 11.4685 5.08105 11.9516 5.51855C12.4346 5.9515 12.6762 6.5485 12.6762 7.30957C12.6762 7.7334 12.6078 8.0957 12.4711 8.39648C12.3344 8.69271 12.1407 8.96615 11.89 9.2168C11.6394 9.46289 11.3432 9.72493 11.0014 10.0029C10.7006 10.2581 10.4704 10.4837 10.3109 10.6797C10.1514 10.8711 10.0421 11.0693 9.98281 11.2744C9.92357 11.4749 9.89395 11.7165 9.89395 11.999V12.2246H8.98477ZM8.68398 14.2891C8.68398 13.9701 8.75918 13.7445 8.90957 13.6123C9.05996 13.4756 9.25365 13.4072 9.49062 13.4072C9.71393 13.4072 9.90306 13.4756 10.058 13.6123C10.2175 13.7445 10.2973 13.9701 10.2973 14.2891C10.2973 14.6035 10.2175 14.8337 10.058 14.9795C9.90306 15.1208 9.71393 15.1914 9.49062 15.1914C9.25365 15.1914 9.05996 15.1208 8.90957 14.9795C8.75918 14.8337 8.68398 14.6035 8.68398 14.2891Z" fill="#054C80"/>
<circle cx="10" cy="10" r="9.5" stroke="#054C80"/>
</svg>
